<svg xmlns="http://www.w3.org/2000/svg" xmlns:xlink="http://www.w3.org/1999/xlink" xmlns:xodm="http://www.corel.com/coreldraw/odm/2003" xml:space="preserve" width="193px" height="79px" version="1.1" style="shape-rendering:geometricPrecision; text-rendering:geometricPrecision; image-rendering:optimizeQuality; fill-rule:evenodd; clip-rule:evenodd" viewBox="0 0 31.177 12.692"> <defs> <style type="text/css"> .fil2 {fill:#5C5C5C} .fil1 {fill:#5C5C5C;fill-rule:nonzero} .fil0 {fill:url(#id0)} </style> <linearGradient id="id0" gradientUnits="userSpaceOnUse" x1="1.064" y1="0.67" x2="1.064" y2="11.503"> <stop offset="0" style="stop-opacity:1; stop-color:#00B3FF"></stop> <stop offset="0.509804" style="stop-opacity:1; stop-color:#833488"></stop> <stop offset="1" style="stop-opacity:1; stop-color:#EF7F1A"></stop> </linearGradient> </defs> <g id="Слой_x0020_1"> <metadata id="CorelCorpID_0Corel-Layer"></metadata> <g id="_1408433683632"> <path class="fil0" d="M0.369 7.139c0.506,0.526 1.343,0.542 1.869,0.036 0.525,-0.506 0.541,-1.343 0.036,-1.868 -0.506,-0.526 -1.343,-0.543 -1.869,-0.036 -0.526,0.506 -0.542,1.342 -0.036,1.868zm4.298 2.64c-0.565,0.473 -1.219,0.533 -1.744,-0.008 -0.009,-0.009 -0.018,-0.018 -0.027,-0.027 -0.025,-0.026 -0.049,-0.053 -0.071,-0.081 -0.387,-0.456 -0.381,-0.858 -0.18,-1.256 0.053,-0.126 0.127,-0.246 0.224,-0.353 0.076,-0.102 0.161,-0.204 0.251,-0.309l0 0 0.002 -0.002 0.027 -0.033c0.12,-0.149 0.21,-0.292 0.295,-0.463l0.002 -0.004 0.006 -0.013 0.01 -0.021 0.001 -0.003 0.001 -0.002 0.005 -0.011c0.245,-0.475 0.302,-1.022 0.17,-1.533 -0.077,-0.3 -0.236,-0.602 -0.438,-0.861 -0.421,-0.538 -0.751,-0.754 -0.533,-1.476 0.065,-0.215 0.183,-0.418 0.358,-0.584 0.53,-0.502 1.367,-0.479 1.869,0.051 0.258,0.272 0.377,0.625 0.361,0.971 -0.002,0.032 -0.005,0.064 -0.008,0.095 -0.035,0.389 -0.445,0.706 -0.712,0.995l-0.001 0.002 -0.009 0.011 -0.026 0.034 -0.001 0.001 -0.008 0.011 -0.023 0.031 -0.003 0.003 -0.002 0.003 -0.007 0.009 -0.016 0.023 -0.008 0.012 -0.008 0.012 -0.009 0.012 -0.008 0.012 -0.007 0.012 -0.005 0.007 -0.003 0.005 -0.008 0.012 -0.008 0.012 -0.007 0.012 0 0.001 -0.015 0.024 -0.008 0.012 -0.007 0.012 -0.007 0.011 0 0.001 -0.007 0.012 -0.007 0.013 -0.007 0.012 -0.014 0.025 -0.006 0.013 -0.007 0.012 -0.007 0.013 -0.006 0.012 -0.006 0.013 -0.007 0.013 -0.006 0.012 -0.006 0.013 -0.006 0.013 -0.006 0.012 -0.006 0.013 -0.012 0.026 -0.003 0.006 -0.003 0.007 -0.003 0.007 -0.003 0.006 -0.003 0.007 -0.001 0.003 -0.001 0.004 -0.003 0.007 -0.009 0.02 -0.002 0.007 -0.003 0.007c-0.087,0.213 -0.141,0.436 -0.164,0.662l-0.003 0.041 0 0.004c-0.051,0.666 0.153,1.29 0.612,1.807 0.019,0.017 0.038,0.036 0.057,0.055 0.019,0.021 0.038,0.042 0.057,0.064l0.016 0.015 -0.002 0.002c0.398,0.492 0.363,1.213 -0.096,1.664l0.009 0.009 -0.001 0zm0.792 -2.505c0.415,0.432 0.642,0.372 0.781,0.932 0.036,0.147 0.06,0.297 0.067,0.448 0.036,0.829 -0.265,1.245 -0.805,1.765 -0.526,0.506 -0.542,1.342 -0.036,1.868 0.506,0.526 1.342,0.542 1.868,0.036 0.526,-0.506 0.542,-1.342 0.036,-1.868 -0.579,-0.602 -0.835,-0.704 -0.755,-1.748l0 -0.003 0.004 -0.041c0.089,-0.891 0.245,-0.906 0.709,-1.353 0.11,-0.106 0.198,-0.227 0.263,-0.356 0.261,-0.491 0.191,-1.114 -0.215,-1.536 -0.579,-0.602 -0.835,-0.704 -0.756,-1.747l0.001 -0.003 0.003 -0.042c0.09,-0.891 0.245,-0.906 0.709,-1.352 0.526,-0.507 0.542,-1.343 0.036,-1.869 -0.505,-0.526 -1.342,-0.542 -1.868,-0.036 -0.526,0.506 -0.542,1.343 -0.036,1.869 0.415,0.431 0.642,0.371 0.78,0.931 0.037,0.147 0.061,0.297 0.067,0.448 0.037,0.829 -0.265,1.246 -0.804,1.765 -0.111,0.106 -0.198,0.226 -0.264,0.355 -0.261,0.492 -0.191,1.115 0.215,1.537l0 0z"></path> <path class="fil1" d="M30.262 0c0.253,0 0.481,0.103 0.647,0.268 0.166,0.166 0.268,0.395 0.268,0.647 0,0.253 -0.102,0.482 -0.268,0.647 -0.165,0.166 -0.394,0.268 -0.647,0.268 -0.252,0 -0.481,-0.102 -0.647,-0.268 -0.166,-0.166 -0.268,-0.394 -0.268,-0.647 0,-0.252 0.102,-0.481 0.268,-0.647 0.166,-0.165 0.394,-0.268 0.647,-0.268zm-0.389 0.488l0.564 0c0.054,0 0.1,0.018 0.137,0.056 0.037,0.038 0.056,0.083 0.056,0.136l0 0.171c0,0.053 -0.019,0.099 -0.055,0.137 -0.037,0.038 -0.083,0.057 -0.138,0.057l-0.02 0 0.234 0.298 -0.199 0 -0.234 -0.298 -0.173 0 0 0.298 -0.172 0 0 -0.855zm0.525 0.409c0.017,0 0.031,-0.005 0.042,-0.017 0.012,-0.011 0.018,-0.025 0.018,-0.042l0 -0.138c0,-0.016 -0.006,-0.03 -0.018,-0.042 -0.011,-0.011 -0.025,-0.017 -0.042,-0.017l-0.353 0 0 0.256 0.353 0zm0.411 -0.529c-0.14,-0.14 -0.333,-0.226 -0.547,-0.226 -0.213,0 -0.407,0.086 -0.547,0.226 -0.14,0.14 -0.226,0.334 -0.226,0.547 0,0.214 0.086,0.407 0.226,0.547 0.14,0.14 0.333,0.227 0.547,0.227 0.214,0 0.407,-0.087 0.547,-0.227 0.14,-0.14 0.227,-0.333 0.227,-0.547 0,-0.213 -0.087,-0.407 -0.227,-0.547z"></path> <path class="fil2" d="M8.62 3.215c0,-0.729 0.261,-1.362 0.784,-1.899 0.522,-0.537 1.139,-0.805 1.848,-0.805 0.417,0 0.801,0.088 1.151,0.266 0.316,0.158 0.599,0.388 0.849,0.69l-0.54 0.417c-0.196,-0.239 -0.413,-0.422 -0.651,-0.546 -0.237,-0.125 -0.507,-0.187 -0.809,-0.187 -0.527,0 -0.98,0.205 -1.359,0.615 -0.379,0.41 -0.568,0.893 -0.568,1.449 0,0.523 0.189,0.986 0.568,1.392 0.379,0.405 0.832,0.608 1.359,0.608 0.331,0 0.642,-0.086 0.932,-0.256 0.29,-0.17 0.519,-0.411 0.687,-0.723l0.568 0.417c-0.25,0.375 -0.563,0.671 -0.939,0.889 -0.376,0.218 -0.792,0.327 -1.248,0.327 -0.709,0 -1.326,-0.261 -1.848,-0.784 -0.523,-0.523 -0.784,-1.146 -0.784,-1.87zm2.36 8.779l0 -4.538 -1.33 0 0 -0.64 3.344 0 0 0.64 -1.323 0 0 4.538 -0.691 0zm2.1 0l0 -2.05c0,-0.518 0.142,-0.915 0.425,-1.194 0.249,-0.244 0.575,-0.366 0.978,-0.366 0.22,0 0.421,0.044 0.6,0.133 0.18,0.088 0.335,0.217 0.464,0.384l-0.417 0.439c-0.057,-0.101 -0.144,-0.183 -0.259,-0.248 -0.115,-0.065 -0.242,-0.097 -0.381,-0.097 -0.259,0 -0.452,0.086 -0.579,0.259 -0.127,0.172 -0.191,0.403 -0.191,0.69l0 2.05 -0.64 0zm5.661 0l0 -1.769c0,-0.379 -0.106,-0.681 -0.317,-0.906 -0.211,-0.226 -0.484,-0.339 -0.82,-0.339 -0.331,0 -0.604,0.113 -0.82,0.339 -0.215,0.225 -0.323,0.52 -0.323,0.884 0,0.369 0.109,0.67 0.327,0.903 0.218,0.232 0.5,0.349 0.845,0.349 0.307,0 0.604,-0.108 0.892,-0.324l-0.252 0.798c-0.182,0.082 -0.419,0.123 -0.712,0.123 -0.47,0 -0.873,-0.166 -1.208,-0.497 -0.355,-0.35 -0.532,-0.796 -0.532,-1.337 0,-0.533 0.167,-0.971 0.503,-1.317 0.336,-0.345 0.76,-0.517 1.273,-0.517 0.345,0 0.657,0.083 0.935,0.251 0.278,0.168 0.494,0.403 0.647,0.705 0.082,0.163 0.135,0.332 0.159,0.507 0.024,0.175 0.036,0.395 0.036,0.658l0 1.489 -0.633 0zm4.797 -5.178l0 3.121c0,0.293 -0.01,0.516 -0.029,0.669 -0.019,0.153 -0.074,0.316 -0.165,0.489 -0.154,0.302 -0.371,0.539 -0.651,0.712 -0.281,0.173 -0.594,0.259 -0.939,0.259 -0.513,0 -0.938,-0.174 -1.276,-0.521 -0.338,-0.348 -0.507,-0.79 -0.507,-1.327 0,-0.513 0.169,-0.946 0.507,-1.299 0.338,-0.352 0.754,-0.528 1.247,-0.528 0.144,0 0.274,0.011 0.389,0.032 0.115,0.022 0.223,0.052 0.324,0.09l0.251 0.798c-0.297,-0.215 -0.597,-0.323 -0.899,-0.323 -0.34,0 -0.621,0.112 -0.841,0.338 -0.221,0.225 -0.331,0.52 -0.331,0.884 0,0.379 0.107,0.682 0.32,0.91 0.213,0.228 0.49,0.342 0.831,0.342 0.33,0 0.603,-0.114 0.816,-0.342 0.213,-0.228 0.32,-0.528 0.32,-0.902l0 -3.402 0.633 0zm0.604 3.398c0,-0.49 0.174,-0.918 0.522,-1.283 0.347,-0.365 0.77,-0.547 1.269,-0.547 0.494,0 0.917,0.183 1.269,0.55 0.353,0.367 0.529,0.792 0.529,1.276l-0.021 0.274 -2.877 0c0.057,0.29 0.187,0.524 0.388,0.702 0.201,0.179 0.439,0.269 0.712,0.269 0.211,0 0.394,-0.051 0.55,-0.15 0.156,-0.1 0.289,-0.232 0.399,-0.397l0.468 0.441c-0.139,0.193 -0.321,0.355 -0.547,0.486 -0.268,0.154 -0.558,0.231 -0.87,0.231 -0.503,0 -0.928,-0.181 -1.273,-0.544 -0.345,-0.362 -0.518,-0.799 -0.518,-1.308zm1.791 -1.234c-0.264,0 -0.499,0.089 -0.705,0.267 -0.206,0.177 -0.338,0.407 -0.395,0.69l2.208 0c-0.053,-0.283 -0.183,-0.513 -0.389,-0.69 -0.206,-0.178 -0.446,-0.267 -0.719,-0.267zm-11.912 -3.204l0 -5.172 0.633 0 0 1.971c0.293,-0.278 0.621,-0.417 0.986,-0.417 0.441,0 0.783,0.144 1.028,0.43 0.245,0.288 0.367,0.701 0.367,1.242l0 1.946 -0.633 0 0 -2.053c0,-0.296 -0.074,-0.528 -0.223,-0.696 -0.149,-0.167 -0.357,-0.251 -0.626,-0.251 -0.259,0 -0.473,0.099 -0.643,0.294 -0.171,0.197 -0.256,0.459 -0.256,0.79l0 1.916 -0.633 0zm3.632 -1.781c0,-0.49 0.174,-0.918 0.522,-1.282 0.347,-0.366 0.771,-0.548 1.269,-0.548 0.494,0 0.917,0.183 1.27,0.55 0.352,0.367 0.528,0.792 0.528,1.277l-0.021 0.273 -2.877 0c0.057,0.29 0.187,0.524 0.388,0.703 0.202,0.178 0.439,0.268 0.712,0.268 0.211,0 0.395,-0.05 0.551,-0.15 0.155,-0.099 0.288,-0.231 0.399,-0.397l0.467 0.442c-0.139,0.193 -0.321,0.354 -0.546,0.485 -0.269,0.155 -0.559,0.231 -0.871,0.231 -0.503,0 -0.928,-0.181 -1.273,-0.544 -0.345,-0.362 -0.518,-0.798 -0.518,-1.308zm1.791 -1.233c-0.263,0 -0.498,0.089 -0.705,0.266 -0.206,0.177 -0.338,0.408 -0.395,0.69l2.208 0c-0.053,-0.282 -0.182,-0.513 -0.389,-0.69 -0.206,-0.177 -0.445,-0.266 -0.719,-0.266zm3.805 -0.597c0.456,0 0.818,0.182 1.086,0.546 0.278,-0.364 0.64,-0.546 1.086,-0.546 0.427,0 0.769,0.138 1.025,0.413 0.257,0.276 0.385,0.659 0.385,1.148l0 2.05 -0.626 0 0 -2.165c0,-0.255 -0.073,-0.457 -0.219,-0.608 -0.146,-0.151 -0.335,-0.227 -0.565,-0.227 -0.23,0 -0.416,0.076 -0.557,0.227 -0.142,0.151 -0.212,0.353 -0.212,0.608l0 2.165 -0.626 0 0 -2.165c0,-0.255 -0.071,-0.457 -0.212,-0.608 -0.142,-0.151 -0.33,-0.227 -0.565,-0.227 -0.235,0 -0.423,0.076 -0.564,0.227 -0.142,0.151 -0.213,0.353 -0.213,0.608l0 2.165 -0.625 0 0 -2.05c0,-0.494 0.127,-0.878 0.381,-1.151 0.254,-0.273 0.594,-0.41 1.021,-0.41zm4.337 -0.942c0,-0.111 0.037,-0.203 0.112,-0.277 0.074,-0.075 0.166,-0.112 0.277,-0.112 0.115,0 0.208,0.036 0.28,0.108 0.072,0.072 0.108,0.166 0.108,0.281 0,0.11 -0.037,0.202 -0.111,0.277 -0.075,0.074 -0.167,0.111 -0.277,0.111 -0.106,0 -0.197,-0.038 -0.274,-0.115 -0.076,-0.077 -0.115,-0.168 -0.115,-0.273zm0.072 4.553l0 -3.546 0.633 0 0 3.546 -0.633 0z"></path> </g> </g> </svg>