<svg xmlns="http://www.w3.org/2000/svg" xmlns:xlink="http://www.w3.org/1999/xlink" xmlns:xodm="http://www.corel.com/coreldraw/odm/2003" xml:space="preserve" width="41px" height="67px" version="1.1" style="shape-rendering:geometricPrecision; text-rendering:geometricPrecision; image-rendering:optimizeQuality; fill-rule:evenodd; clip-rule:evenodd" viewBox="0 0 3.141 5.147"> <defs> <style type="text/css"> .fil0 {fill:url(#id0)} </style> <linearGradient id="id0" gradientUnits="userSpaceOnUse" x1="0.431" y1="0.272" x2="0.431" y2="4.664"> <stop offset="0" style="stop-opacity:1; stop-color:#00B3FF"></stop> <stop offset="0.509804" style="stop-opacity:1; stop-color:#833488"></stop> <stop offset="1" style="stop-opacity:1; stop-color:#EF7F1A"></stop> </linearGradient> </defs> <g id="Слой_x0020_1"> <metadata id="CorelCorpID_0Corel-Layer"></metadata> <path class="fil0" d="M0.15 2.895c0.205,0.213 0.544,0.22 0.757,0.014 0.214,-0.205 0.22,-0.544 0.015,-0.757 -0.205,-0.214 -0.544,-0.22 -0.758,-0.015 -0.213,0.205 -0.219,0.545 -0.014,0.758zm1.743 1.07c-0.23,0.192 -0.495,0.217 -0.708,-0.003 -0.003,-0.003 -0.007,-0.007 -0.011,-0.011 -0.01,-0.01 -0.02,-0.021 -0.029,-0.033 -0.157,-0.185 -0.154,-0.348 -0.072,-0.509 0.021,-0.051 0.051,-0.1 0.09,-0.143 0.031,-0.041 0.065,-0.083 0.102,-0.125l0 -0.001 0.001 0 0.011 -0.014c0.048,-0.06 0.085,-0.118 0.119,-0.187l0.001 -0.002 0.003 -0.005 0.004 -0.009 0 -0.001 0.001 -0.001 0.002 -0.004c0.099,-0.193 0.122,-0.415 0.069,-0.622 -0.032,-0.121 -0.096,-0.244 -0.178,-0.349 -0.171,-0.218 -0.305,-0.306 -0.216,-0.599 0.026,-0.087 0.074,-0.169 0.145,-0.236 0.215,-0.204 0.554,-0.195 0.758,0.02 0.104,0.111 0.153,0.254 0.146,0.394 0,0.013 -0.002,0.026 -0.003,0.039 -0.014,0.157 -0.181,0.286 -0.289,0.403l0 0.001 -0.004 0.004 -0.01 0.014 -0.001 0 -0.003 0.005 -0.009 0.013 -0.002 0.001 0 0.001 -0.003 0.004 -0.007 0.009 -0.003 0.005 -0.003 0.005 -0.004 0.005 -0.003 0.004 -0.003 0.005 -0.002 0.003 -0.001 0.002 -0.003 0.005 -0.003 0.005 -0.003 0.005 0 0 -0.007 0.01 -0.003 0.005 -0.002 0.005 -0.003 0.004 0 0.001 -0.003 0.005 -0.003 0.005 -0.003 0.005 -0.005 0.01 -0.003 0.005 -0.003 0.005 -0.003 0.005 -0.002 0.005 -0.003 0.005 -0.002 0.005 -0.003 0.005 -0.002 0.006 -0.003 0.005 -0.002 0.005 -0.003 0.005 -0.004 0.01 -0.002 0.003 -0.001 0.003 -0.001 0.003 -0.001 0.002 -0.001 0.003 -0.001 0.001 0 0.002 -0.002 0.003 -0.003 0.008 -0.001 0.002 -0.001 0.003c-0.035,0.087 -0.057,0.177 -0.067,0.269l-0.001 0.017 0 0.001c-0.021,0.27 0.062,0.523 0.248,0.733 0.008,0.007 0.016,0.014 0.023,0.022 0.008,0.008 0.016,0.017 0.023,0.026l0.007 0.006 -0.001 0.001c0.162,0.199 0.147,0.492 -0.039,0.675l0.004 0.003 0 0zm0.321 -1.015c0.168,0.175 0.26,0.15 0.316,0.377 0.015,0.06 0.025,0.121 0.027,0.182 0.015,0.336 -0.107,0.505 -0.326,0.716 -0.213,0.205 -0.22,0.544 -0.015,0.757 0.206,0.214 0.545,0.22 0.758,0.015 0.213,-0.205 0.22,-0.544 0.015,-0.758 -0.235,-0.244 -0.339,-0.285 -0.307,-0.708l0 -0.002 0.002 -0.016c0.036,-0.362 0.099,-0.368 0.287,-0.549 0.045,-0.043 0.081,-0.092 0.107,-0.144 0.106,-0.199 0.078,-0.452 -0.087,-0.623 -0.235,-0.244 -0.339,-0.285 -0.306,-0.708l0 -0.002 0.001 -0.017c0.036,-0.361 0.1,-0.367 0.288,-0.548 0.213,-0.205 0.219,-0.545 0.014,-0.758 -0.205,-0.213 -0.544,-0.219 -0.757,-0.014 -0.214,0.205 -0.22,0.544 -0.015,0.757 0.168,0.175 0.26,0.151 0.317,0.378 0.014,0.06 0.024,0.12 0.027,0.182 0.014,0.336 -0.108,0.505 -0.327,0.715 -0.044,0.043 -0.08,0.092 -0.106,0.144 -0.106,0.2 -0.078,0.452 0.087,0.624l0 0z"></path> </g> </svg>