<svg xmlns="http://www.w3.org/2000/svg" xmlns:xlink="http://www.w3.org/1999/xlink" xmlns:xodm="http://www.corel.com/coreldraw/odm/2003" xml:space="preserve" width="146px" height="67px" version="1.1" style="shape-rendering:geometricPrecision; text-rendering:geometricPrecision; image-rendering:optimizeQuality; fill-rule:evenodd; clip-rule:evenodd" viewBox="0 0 79.622 36.445"> <defs> <style type="text/css"> .fil2 {fill:#5C5C5C} .fil1 {fill:#5C5C5C;fill-rule:nonzero} .fil0 {fill:url(#id0)} </style> <linearGradient id="id0" gradientUnits="userSpaceOnUse" x1="3.043" y1="2.052" x2="3.043" y2="33.043"> <stop offset="0" style="stop-opacity:1; stop-color:#00B3FF"></stop> <stop offset="0.509804" style="stop-opacity:1; stop-color:#833488"></stop> <stop offset="1" style="stop-opacity:1; stop-color:#EF7F1A"></stop> </linearGradient> </defs> <g id="Слой_x0020_1"> <metadata id="CorelCorpID_0Corel-Layer"></metadata> <g id="_2450861431216"> <path class="fil0" d="M1.057 20.558c1.447,1.504 3.84,1.55 5.344,0.103 1.505,-1.448 1.551,-3.841 0.103,-5.345 -1.447,-1.505 -3.84,-1.551 -5.345,-0.103 -1.504,1.448 -1.55,3.841 -0.102,5.345zm12.295 7.551c-1.616,1.356 -3.489,1.527 -4.991,-0.021 -0.025,-0.025 -0.051,-0.051 -0.076,-0.076 -0.072,-0.075 -0.14,-0.153 -0.205,-0.232 -1.107,-1.306 -1.087,-2.456 -0.513,-3.593 0.151,-0.362 0.364,-0.705 0.639,-1.01 0.218,-0.292 0.461,-0.586 0.719,-0.884l0.002 -0.002 0.004 -0.004 0.077 -0.094c0.343,-0.426 0.602,-0.835 0.844,-1.324l0.006 -0.014 0.017 -0.035 0.028 -0.061 0.005 -0.01 0.003 -0.006 0.013 -0.03c0.7,-1.358 0.865,-2.925 0.487,-4.385 -0.222,-0.858 -0.676,-1.721 -1.254,-2.463 -1.203,-1.54 -2.148,-2.157 -1.525,-4.224 0.185,-0.615 0.525,-1.195 1.026,-1.669 1.516,-1.436 3.91,-1.371 5.346,0.146 0.736,0.778 1.078,1.787 1.031,2.777 -0.004,0.091 -0.014,0.182 -0.022,0.273 -0.101,1.111 -1.274,2.017 -2.036,2.845l-0.003 0.004 -0.025 0.032 -0.077 0.098 -0.002 0.002 -0.023 0.032 -0.066 0.089 -0.008 0.01 -0.006 0.007 -0.018 0.026 -0.048 0.067 -0.023 0.034 -0.023 0.034 -0.024 0.034 -0.023 0.035 -0.022 0.033 -0.013 0.02 -0.01 0.015 -0.021 0.035 -0.022 0.034 -0.022 0.035 0 0.001 -0.043 0.069 -0.021 0.034 -0.021 0.036 -0.019 0.032 -0.001 0.003 -0.02 0.034 -0.02 0.036 -0.02 0.035 -0.039 0.071 -0.019 0.036 -0.02 0.036 -0.018 0.036 -0.019 0.036 -0.018 0.036 -0.018 0.036 -0.018 0.036 -0.018 0.036 -0.017 0.037 -0.017 0.037 -0.017 0.036 -0.034 0.074 -0.009 0.018 -0.008 0.02 -0.008 0.019 -0.009 0.019 -0.008 0.02 -0.003 0.006 -0.005 0.012 -0.009 0.02 -0.023 0.057 -0.008 0.02 -0.008 0.019c-0.247,0.61 -0.402,1.248 -0.467,1.895l-0.011 0.119 0 0.009c-0.146,1.907 0.439,3.691 1.752,5.17 0.055,0.05 0.109,0.103 0.162,0.158 0.056,0.059 0.111,0.12 0.163,0.182l0.047 0.045 -0.005 0.005c1.138,1.407 1.036,3.471 -0.277,4.759l0.026 0.026 -0.001 -0.001zm2.265 -7.163c1.188,1.233 1.837,1.063 2.233,2.664 0.104,0.422 0.173,0.849 0.191,1.281 0.104,2.373 -0.758,3.564 -2.302,5.05 -1.504,1.448 -1.55,3.84 -0.103,5.344 1.448,1.505 3.841,1.551 5.345,0.103 1.504,-1.447 1.55,-3.84 0.103,-5.345 -1.656,-1.721 -2.389,-2.013 -2.161,-4.998l0.001 -0.009 0.011 -0.119c0.255,-2.549 0.7,-2.592 2.027,-3.869 0.317,-0.304 0.567,-0.649 0.755,-1.02 0.746,-1.405 0.546,-3.185 -0.616,-4.393 -1.656,-1.722 -2.39,-2.013 -2.162,-4.998l0.001 -0.009 0.011 -0.119c0.255,-2.549 0.701,-2.592 2.028,-3.869 1.504,-1.448 1.55,-3.841 0.103,-5.345 -1.447,-1.504 -3.841,-1.551 -5.345,-0.103 -1.504,1.447 -1.55,3.84 -0.103,5.345 1.187,1.233 1.836,1.063 2.233,2.663 0.104,0.423 0.172,0.851 0.191,1.282 0.105,2.373 -0.758,3.565 -2.302,5.05 -0.316,0.303 -0.566,0.647 -0.753,1.017 -0.747,1.405 -0.549,3.187 0.614,4.396l0 0.001z"></path> <path class="fil1" d="M76.686 0c0.81,0 1.544,0.329 2.075,0.86 0.532,0.532 0.861,1.266 0.861,2.076 0,0.811 -0.329,1.545 -0.86,2.076 -0.531,0.531 -1.265,0.86 -2.076,0.86 -0.809,0 -1.543,-0.329 -2.075,-0.86 -0.532,-0.533 -0.86,-1.267 -0.86,-2.076 0,-0.811 0.328,-1.545 0.859,-2.076 0.531,-0.531 1.266,-0.86 2.076,-0.86zm-1.248 1.564l1.81 0c0.173,0 0.319,0.061 0.439,0.181 0.119,0.121 0.179,0.266 0.179,0.436l0 0.549c0,0.17 -0.059,0.316 -0.177,0.438 -0.119,0.122 -0.265,0.183 -0.441,0.183l-0.064 0 0.75 0.957 -0.64 0 -0.75 -0.957 -0.553 0 0 0.957 -0.553 0 0 -2.744zm1.685 1.315c0.053,0 0.098,-0.019 0.135,-0.055 0.037,-0.037 0.055,-0.082 0.055,-0.136l0 -0.442c0,-0.053 -0.018,-0.098 -0.055,-0.135 -0.037,-0.037 -0.082,-0.055 -0.135,-0.055l-1.132 0 0 0.823 1.132 0zm1.318 -1.698c-0.449,-0.448 -1.069,-0.726 -1.755,-0.726 -0.685,0 -1.305,0.278 -1.754,0.727 -0.449,0.448 -0.726,1.069 -0.726,1.754 0,0.685 0.277,1.306 0.725,1.754 0.449,0.449 1.07,0.727 1.755,0.727 0.685,0 1.306,-0.278 1.755,-0.727 0.448,-0.449 0.726,-1.069 0.726,-1.754 0,-0.685 -0.278,-1.306 -0.726,-1.755z"></path> <path class="fil2" d="M25.088 10.793c0,-1.746 0.626,-3.261 1.878,-4.547 1.251,-1.286 2.726,-1.929 4.426,-1.929 0.999,0 1.917,0.213 2.755,0.637 0.758,0.379 1.436,0.93 2.033,1.654l-1.292 0.998c-0.471,-0.574 -0.99,-1.01 -1.559,-1.308 -0.568,-0.299 -1.214,-0.448 -1.937,-0.448 -1.263,0 -2.348,0.491 -3.255,1.472 -0.907,0.982 -1.361,2.139 -1.361,3.471 0,1.251 0.454,2.362 1.361,3.332 0.907,0.97 1.992,1.455 3.255,1.455 0.792,0 1.535,-0.203 2.23,-0.611 0.695,-0.408 1.243,-0.985 1.645,-1.731l1.36 0.999c-0.597,0.896 -1.346,1.605 -2.247,2.127 -0.901,0.522 -1.898,0.784 -2.988,0.784 -1.7,0 -3.175,-0.626 -4.426,-1.878 -1.252,-1.251 -1.878,-2.744 -1.878,-4.477zm5.653 21.021l0 -10.867 -3.187 0 0 -1.532 8.009 0 0 1.532 -3.169 0 0 10.867 -1.653 0zm5.028 0l0 -4.908c0,-1.24 0.339,-2.193 1.016,-2.859 0.597,-0.585 1.378,-0.878 2.343,-0.878 0.528,0 1.007,0.106 1.437,0.318 0.431,0.213 0.802,0.52 1.111,0.922l-0.999 1.05c-0.137,-0.241 -0.344,-0.439 -0.619,-0.594 -0.276,-0.155 -0.58,-0.232 -0.913,-0.232 -0.62,0 -1.082,0.206 -1.386,0.62 -0.305,0.413 -0.457,0.964 -0.457,1.653l0 4.908 -1.533 0zm13.554 0l0 -4.236c0,-0.907 -0.253,-1.631 -0.758,-2.17 -0.505,-0.54 -1.159,-0.81 -1.963,-0.81 -0.792,0 -1.447,0.27 -1.963,0.81 -0.517,0.539 -0.775,1.245 -0.775,2.118 0,0.884 0.261,1.604 0.783,2.161 0.523,0.557 1.197,0.836 2.024,0.836 0.735,0 1.446,-0.259 2.135,-0.775l-0.602 1.911c-0.437,0.195 -1.005,0.293 -1.706,0.293 -1.125,0 -2.089,-0.396 -2.893,-1.188 -0.849,-0.839 -1.274,-1.906 -1.274,-3.203 0,-1.275 0.402,-2.325 1.205,-3.152 0.804,-0.827 1.82,-1.24 3.049,-1.24 0.826,0 1.573,0.201 2.238,0.603 0.666,0.401 1.183,0.964 1.55,1.687 0.196,0.391 0.322,0.795 0.379,1.214 0.058,0.419 0.086,0.945 0.086,1.576l0 3.565 -1.515 0zm11.487 -12.399l0 7.474c0,0.7 -0.023,1.234 -0.069,1.601 -0.046,0.368 -0.178,0.758 -0.396,1.171 -0.367,0.724 -0.887,1.292 -1.559,1.706 -0.671,0.413 -1.42,0.619 -2.247,0.619 -1.229,0 -2.248,-0.416 -3.057,-1.248 -0.81,-0.833 -1.214,-1.892 -1.214,-3.177 0,-1.229 0.404,-2.265 1.214,-3.109 0.809,-0.844 1.805,-1.266 2.988,-1.266 0.345,0 0.654,0.026 0.93,0.078 0.275,0.051 0.534,0.123 0.775,0.215l0.603 1.911c-0.712,-0.516 -1.429,-0.775 -2.153,-0.775 -0.815,0 -1.487,0.27 -2.015,0.81 -0.528,0.539 -0.792,1.246 -0.792,2.118 0,0.907 0.256,1.633 0.766,2.179 0.511,0.545 1.174,0.818 1.99,0.818 0.792,0 1.443,-0.273 1.954,-0.818 0.511,-0.546 0.766,-1.266 0.766,-2.161l0 -8.146 1.516 0zm1.447 8.137c0,-1.174 0.416,-2.199 1.248,-3.071 0.833,-0.876 1.846,-1.312 3.04,-1.312 1.182,0 2.196,0.439 3.04,1.317 0.844,0.879 1.266,1.898 1.266,3.057l-0.052 0.655 -6.889 0c0.138,0.694 0.448,1.254 0.93,1.682 0.482,0.427 1.051,0.643 1.705,0.643 0.505,0 0.944,-0.121 1.318,-0.359 0.373,-0.239 0.691,-0.554 0.955,-0.95l1.12 1.056c-0.333,0.462 -0.77,0.85 -1.309,1.162 -0.643,0.371 -1.338,0.554 -2.084,0.554 -1.206,0 -2.222,-0.433 -3.048,-1.303 -0.827,-0.867 -1.24,-1.911 -1.24,-3.131zm4.288 -2.954c-0.632,0 -1.194,0.213 -1.688,0.638 -0.494,0.424 -0.809,0.975 -0.947,1.653l5.287 0c-0.126,-0.678 -0.436,-1.229 -0.93,-1.653 -0.493,-0.425 -1.068,-0.638 -1.722,-0.638zm-28.523 -7.674l0 -12.383 1.516 0 0 4.719c0.7,-0.666 1.487,-0.999 2.359,-0.999 1.057,0 1.877,0.344 2.463,1.03 0.585,0.689 0.878,1.68 0.878,2.974l0 4.659 -1.515 0 0 -4.914c0,-0.709 -0.178,-1.266 -0.534,-1.668 -0.356,-0.399 -0.856,-0.6 -1.498,-0.6 -0.62,0 -1.134,0.235 -1.542,0.703 -0.407,0.471 -0.611,1.1 -0.611,1.892l0 4.587 -1.516 0zm8.697 -4.263c0,-1.174 0.417,-2.198 1.249,-3.071 0.832,-0.876 1.846,-1.312 3.04,-1.312 1.183,0 2.196,0.439 3.04,1.318 0.844,0.878 1.265,1.897 1.265,3.057l-0.051 0.654 -6.889 0c0.138,0.695 0.447,1.254 0.93,1.682 0.482,0.428 1.05,0.643 1.705,0.643 0.505,0 0.944,-0.12 1.317,-0.359 0.373,-0.238 0.692,-0.554 0.956,-0.95l1.12 1.056c-0.333,0.463 -0.77,0.85 -1.309,1.163 -0.643,0.37 -1.338,0.554 -2.084,0.554 -1.206,0 -2.222,-0.433 -3.048,-1.303 -0.827,-0.867 -1.241,-1.912 -1.241,-3.132zm4.289 -2.953c-0.632,0 -1.194,0.212 -1.688,0.637 -0.494,0.425 -0.809,0.976 -0.947,1.653l5.287 0c-0.126,-0.677 -0.436,-1.228 -0.93,-1.653 -0.494,-0.425 -1.068,-0.637 -1.722,-0.637zm9.11 -1.43c1.091,0 1.958,0.436 2.601,1.309 0.666,-0.873 1.533,-1.309 2.601,-1.309 1.021,0 1.839,0.33 2.454,0.99 0.614,0.66 0.921,1.576 0.921,2.748l0 4.908 -1.498 0 0 -5.184c0,-0.609 -0.175,-1.094 -0.525,-1.455 -0.351,-0.362 -0.801,-0.543 -1.352,-0.543 -0.552,0 -0.996,0.181 -1.335,0.543 -0.339,0.361 -0.508,0.846 -0.508,1.455l0 5.184 -1.499 0 0 -5.184c0,-0.609 -0.169,-1.094 -0.507,-1.455 -0.339,-0.362 -0.79,-0.543 -1.353,-0.543 -0.562,0 -1.013,0.181 -1.351,0.543 -0.339,0.361 -0.508,0.846 -0.508,1.455l0 5.184 -1.499 0 0 -4.908c0,-1.183 0.304,-2.102 0.913,-2.756 0.608,-0.655 1.424,-0.982 2.445,-0.982zm10.386 -2.256c0,-0.264 0.089,-0.485 0.267,-0.663 0.177,-0.178 0.398,-0.267 0.663,-0.267 0.275,0 0.499,0.086 0.671,0.258 0.173,0.173 0.259,0.396 0.259,0.672 0,0.264 -0.089,0.485 -0.267,0.663 -0.178,0.178 -0.399,0.267 -0.663,0.267 -0.253,0 -0.471,-0.092 -0.655,-0.276 -0.184,-0.183 -0.275,-0.401 -0.275,-0.654zm0.172 10.902l0 -8.491 1.516 0 0 8.491 -1.516 0z"></path> </g> </g> </svg>