<svg xmlns="http://www.w3.org/2000/svg" width="520" height="520" viewBox="0 0 520 520" fill="none"><g clip-path="url(#clip0)" filter="url(#filter0_d)"><path d="M460.836 0H59.168C28.7461 0 4 24.7461 4 55.168V349.406C4 379.824 28.7461 404.57 59.168 404.57H186.465L228.621 488.887C235.965 503.574 247.402 512 260 512C272.598 512 284.035 503.574 291.379 488.887L333.539 404.57H460.836C491.254 404.57 516 379.824 516 349.406V55.168C516 24.7461 491.254 0 460.836 0V0ZM486 349.406C486 363.281 474.711 374.57 460.836 374.57H324.27C318.586 374.57 313.395 377.781 310.852 382.863L264.547 475.469C262.68 479.203 260.926 481.039 260 481.742C259.074 481.039 257.32 479.203 255.453 475.469L209.148 382.863C206.609 377.781 201.414 374.57 195.734 374.57H59.168C45.2891 374.57 34 363.281 34 349.406V55.168C34 41.2891 45.2891 30 59.168 30H460.836C474.711 30 486 41.2891 486 55.168V349.406Z" fill="#88D24E"></path></g><defs><filter id="filter0_d" x="0" y="0" width="520" height="520" filterUnits="userSpaceOnUse" color-interpolation-filters="sRGB"><feGaussianBlur stdDeviation="2"></feGaussianBlur></filter><clipPath id="clip0"><rect width="512" height="512" fill="white" transform="translate(4)"></rect></clipPath></defs></svg>