<svg xmlns="http://www.w3.org/2000/svg" xmlns:xlink="http://www.w3.org/1999/xlink" id="Layer_1_1_" x="0px" y="0px" viewBox="0 0 64 64" style="enable-background:new 0 0 64 64;" xml:space="preserve" width="512" height="512">
<g>
	<path d="M60,24h-1v-7h-2v-4h-2V7h3V4c0-1.654-1.346-3-3-3h-6c-1.654,0-3,1.346-3,3v3h3v6h-2v4h-2v-3.333L41.5,9h-3.719l-1-4H11.219   l-1,4H4.5L1,13.667v32.666l3,4V59h2.219l1,4h7.562l1-4h14.438l1,4h7.562l1-4H42v-8.667L44.5,47H46c0.551,0,1,0.448,1,1v6   c0,1.654,1.346,3,3,3h2c1.654,0,3-1.346,3-3V41h4v-5h1c1.654,0,3-1.346,3-3v-6C63,25.346,61.654,24,60,24z M48,4   c0-0.552,0.449-1,1-1h6c0.551,0,1,0.448,1,1v1h-8V4z M51,7h2v6h-2V7z M49,15h6v2h-6V15z M12.781,7h22.438l0.5,2H12.281L12.781,7z    M5.5,11h35l1.5,2H4L5.5,11z M13.219,61H8.781l-0.5-2h5.438L13.219,61z M37.219,61h-4.438l-0.5-2h5.438L37.219,61z M6,57v-2h4v-2H6   v-2h34v2H12v2h28v2H6z M43,45.667L40.5,49H5.5L3,45.667V15h40v2h-4h-1H7v28h32v-4h4V45.667z M30.899,43   c-0.465-2.279-2.484-4-4.899-4h-6c-2.414,0-4.434,1.721-4.899,4H9V19h4v8h6v4h3v6h2v-6h3v-4h6v-8h4v24H30.899z M28.816,43H17.184   c0.414-1.161,1.514-2,2.816-2h6C27.302,41,28.402,41.839,28.816,43z M21,29v-2h4v2H21z M15,25v-6h16v6H15z M57,39H47v2h6v13   c0,0.552-0.449,1-1,1h-2c-0.551,0-1-0.448-1-1v-6c0-1.654-1.346-3-3-3h-1v-6h-6V19h18V39z M61,33c0,0.552-0.449,1-1,1h-1v-8h1   c0.551,0,1,0.448,1,1V33z"></path>
	<path d="M55,21H41v8h14V21z M53,27H43v-4h10V27z"></path>
	<path d="M44,31c-1.654,0-3,1.346-3,3s1.346,3,3,3s3-1.346,3-3S45.654,31,44,31z M44,35c-0.551,0-1-0.448-1-1s0.449-1,1-1   s1,0.448,1,1S44.551,35,44,35z"></path>
	<rect x="49" y="33" width="2" height="2"></rect>
	<rect x="53" y="33" width="2" height="2"></rect>
	<rect x="18" y="21" width="2" height="2"></rect>
	<rect x="22" y="21" width="2" height="2"></rect>
	<rect x="26" y="21" width="2" height="2"></rect>
</g>
</svg>