<svg width="64" height="67" viewBox="0 0 64 67" fill="none" xmlns="http://www.w3.org/2000/svg">
<path d="M28.8394 26.7685L0.101929 43.0339L0.101929 39.0076L28.8394 22.8663L38.2258 27.7839V31.5621L28.8394 26.7685Z" fill="#97D666"/>
<path d="M28.8394 18.7158L0.101929 35.3535L0.101929 31.4512L28.8394 14.9376L38.2258 19.5317V23.434L28.8394 18.7158Z" fill="#97D666"/>
<path d="M28.8394 11.8309L17.2162 18.6092V14.7069L28.8394 7.92862L38.2259 12.2989L38.2258 16.3252L28.8394 11.8309Z" fill="#97D666"/>
<path d="M28.8394 4.02635L17.2162 10.9287L17.2162 7.1505L28.8394 0L38.2258 4.29481L38.2259 8.52067L28.8394 4.02635Z" fill="#97D666"/>
<path d="M23.3982 44.0421L52.1241 60.7968L48.6372 62.8099L20.0725 45.9932L20.0725 35.4055L23.3982 33.5164L23.3982 44.0421Z" fill="#97D666"/>
<path d="M16.3917 48.0684L45.4726 64.637L42.0932 66.5881L13.066 49.9575L13.066 39.5316L16.3917 37.5805V48.0684Z" fill="#97D666"/>
<path d="M10.3323 51.5109L22.4145 58.1877L19.0351 60.1388L6.89906 53.462L6.89906 43.148L10.3323 41.1348L10.3323 51.5109Z" fill="#97D666"/>
<path d="M3.57331 55.4132L15.763 62.0279L12.491 63.917L3.51375e-06 57.4263L0 47.15L3.57331 45.0371L3.57331 55.4132Z" fill="#97D666"/>
<path d="M41.1495 38.7317V5.71159L44.5827 7.72477V40.6828L35.4357 46.3529L32.1637 44.4638L41.1495 38.7317Z" fill="#97D666"/>
<path d="M47.9622 42.758V9.55184L51.2879 11.503V44.6472L42.5823 50.479L39.2029 48.5279L47.9622 42.758Z" fill="#97D666"/>
<path d="M53.9154 46.2005V32.7454L57.2948 34.6965V48.1516L48.8462 54.0954L45.3592 52.0822L53.9154 46.2005Z" fill="#97D666"/>
<path d="M60.6206 50.1028V36.5856L64 38.4747V52.116L55.7779 58.0974L52.1182 55.9845L60.6206 50.1028Z" fill="#97D666"/>
</svg>
